<?xml version="1.0" encoding="UTF-8" standalone="no"?>
<!-- Created with Inkscape (http://www.inkscape.org/) -->

<svg
   width="202.73155mm"
   height="65.868027mm"
   viewBox="0 0 202.73155 65.868027"
   version="1.1"
   id="svg5"
   xml:space="preserve"
   xmlns:inkscape="http://www.inkscape.org/namespaces/inkscape"
   xmlns:sodipodi="http://sodipodi.sourceforge.net/DTD/sodipodi-0.dtd"
   xmlns="http://www.w3.org/2000/svg"
   xmlns:svg="http://www.w3.org/2000/svg"><sodipodi:namedview
     id="namedview7"
     pagecolor="#ffffff"
     bordercolor="#000000"
     borderopacity="0.25"
     inkscape:showpageshadow="2"
     inkscape:pageopacity="0.0"
     inkscape:pagecheckerboard="0"
     inkscape:deskcolor="#d1d1d1"
     inkscape:document-units="mm"
     showgrid="false"
     inkscape:lockguides="false" /><defs
     id="defs2"><filter
       style="color-interpolation-filters:sRGB"
       inkscape:label="Drop Shadow"
       id="filter1178"
       x="-0.012162272"
       y="-0.039690401"
       width="1.0273651"
       height="1.0893034"><feFlood
         flood-opacity="0.498039"
         flood-color="rgb(0,0,0)"
         result="flood"
         id="feFlood1168" /><feComposite
         in="flood"
         in2="SourceGraphic"
         operator="in"
         result="composite1"
         id="feComposite1170" /><feGaussianBlur
         in="composite1"
         stdDeviation="1"
         result="blur"
         id="feGaussianBlur1172" /><feOffset
         dx="0.6"
         dy="0.6"
         result="offset"
         id="feOffset1174" /><feComposite
         in="SourceGraphic"
         in2="offset"
         operator="over"
         result="composite2"
         id="feComposite1176" /></filter></defs><g
     inkscape:label="Layer 1"
     inkscape:groupmode="layer"
     id="layer1"
     transform="translate(-5.3868529,-108.54033)"><rect
       style="fill:#333333;stroke-width:0.448851;filter:url(#filter1178)"
       id="rect788"
       width="197.33156"
       height="60.468021"
       x="7.7868528"
       y="110.94032"
       rx="16.550158"
       ry="17.247011" /><g
       style="fill-rule:evenodd"
       id="g962"
       transform="matrix(1.2623264,0,0,1.2623264,15.806906,100.80434)"><path
         d="m 42.597,24.207 c -1.472,-0.002 -2.694,0.3 -3.166,0.464 l -0.486,2.626 c -10e-4,0.01 2.42,-0.646 3.487,-0.607 1.766,0.063 1.93,0.675 1.898,1.5 0.03,0.048 -0.456,-0.746 -1.984,-0.772 -1.928,-0.033 -4.648,0.682 -4.644,3.592 -0.052,3.273 2.445,4.236 4.145,4.253 1.53,-0.028 2.246,-0.58 2.638,-0.874 l 1.67,-1.732 c -0.533,0.968 -0.994,1.637 -1.475,2.15 v 0.432 l 2.324,-0.4 0.016,-6.316 C 46.996,27.629 47.533,24.208 42.598,24.2 Z m -0.334,5.5 c 0.963,0.013 2.068,0.488 2.07,1.63 0.005,1.04 -1.302,1.598 -2.152,1.6 -0.85,0.002 -1.98,-0.668 -1.984,-1.682 0.016,-0.906 1.064,-1.562 2.066,-1.54 z m 6.287,-4.907 -0.016,10.46 2.707,-0.522 0.005,-5.93 c 10e-4,-0.883 1.262,-1.915 2.844,-1.898 0.336,-0.608 0.967,-2.16 1.12,-2.514 -3.535,-0.008 -3.58,1.016 -4.195,1.52 l -0.002,-1.54 -2.464,0.423 z m 15.235,1.364 c -0.026,-0.012 -1.412,-1.62 -4.198,-1.634 -2.6,-0.043 -5.536,0.968 -5.583,5.344 0.023,3.847 2.812,5.35 5.598,5.38 2.982,0.03 4.168,-1.864 4.24,-1.9 -0.356,-0.308 -1.688,-1.63 -1.688,-1.63 0,0 -0.832,1.185 -2.447,1.2 -1.615,0.015 -3.02,-1.248 -3.04,-3.012 -0.02,-1.764 1.3,-2.72 3.05,-2.796 1.524,0 2.404,0.984 2.404,0.984 z m 3.413,-5.034 -2.556,0.6 0.02,13.624 2.518,-0.455 0.03,-6.412 c 0.005,-0.672 0.973,-1.705 2.588,-1.672 1.544,0.016 1.9,1.03 1.885,1.157 l 0.045,7.422 2.483,-0.44 0.01,-7.87 c 0.016,-0.757 -1.66,-2.357 -4.352,-2.368 -1.28,0.002 -1.988,0.292 -2.35,0.505 l -2.02,1.52 c 0.64,-0.823 1.178,-1.392 1.704,-1.815 l -0.006,-3.795 z"
         fill="#4d4d4d"
         id="path950"
         style="fill:#ffffff" /><path
         d="m 75.585793,21.221589 1.153,-0.3 0.055,13.735 -1.17,0.2 z m 3.134,4.1 1,-0.45 0.01,9.85 -0.976,0.202 z m -0.24,-3.552 0.815,-0.665 0.677,0.753 -0.815,0.683 z m 3.15,3.372 1.153,-0.235 0.005,2.06 c 0,0.088 0.633,-2.3 3.686,-2.247 2.964,0.016 3.45,2.3 3.433,2.826 l 0.037,7.24 -1,0.22 -0.006,-7.152 c 0.012,-0.2 -0.462,-1.975 -2.556,-1.98 -2.094,-0.005 -3.545,1.52 -3.543,2.497 l 0.017,6.3 -1.17,0.306 z m 18.382997,9.694 -1.152997,0.235 -0.005,-2.06 c 0,-0.088 -0.633,2.3 -3.686,2.247 -2.964,-0.016 -3.45,-2.3 -3.433,-2.826 l -0.037,-7.24 1.225,-0.247 0.02,7.152 c 0.001,0.195 0.234,2.003 2.33,2 2.096,-0.003 3.56,-1.26 3.572,-3.17 l -0.015,-5.643 1.14,-0.3 z m 2.25,-9.776 -0.808,0.633 3.1,4.056 -3.306,4.686 0.858,0.636 3.106,-4.35 3.207,4.455 0.793,-0.633 -3.437,-4.763 2.742,-3.852 -0.843,-0.713 -2.498,3.564 z m -77.904997,-10.472 -3.664,8.678 c 0.92,0.976 2.05,2.112 3.886,3.396 -1.973,-0.812 -3.32,-1.627 -4.325,-2.473 -1.922,4 -4.932,9.722 -11.0420005,20.7 4.8020005,-2.772 8.5250005,-4.482 11.9940005,-5.134 a 8.79,8.79 0 0 1 -0.228,-2.057 l 0.006,-0.154 c 0.076,-3.077 1.677,-5.442 3.573,-5.282 1.896,0.16 3.37,2.786 3.293,5.863 a 8.69,8.69 0 0 1 -0.194,1.652 c 3.432,0.67 7.114,2.376 11.85,5.1 l -2.564,-4.746 c -1.254,-0.972 -2.562,-2.237 -5.23,-3.607 1.834,0.477 3.147,1.026 4.17,1.64 -8.095,-15.072 -8.75,-17.074 -11.527,-23.6 z"
         fill="#1793d1"
         id="path952" /></g><text
       xml:space="preserve"
       style="font-size:12.747px;fill:#ffffff;stroke-width:1.06224"
       x="81.70108"
       y="155.49068"
       id="text1018"><tspan
         sodipodi:role="line"
         id="tspan1016"
         style="fill:#ffffff;stroke-width:1.06224"
         x="81.70108"
         y="155.49068">user repository</tspan></text></g></svg>
