<?xml version="1.0" encoding="UTF-8" standalone="no"?>
<!-- Created with Inkscape (http://www.inkscape.org/) -->

<svg
   width="210mm"
   height="297mm"
   viewBox="0 0 210 297"
   version="1.1"
   id="svg5"
   xml:space="preserve"
   inkscape:version="1.2.2 (b0a8486541, 2022-12-01)"
   sodipodi:docname="windows_logos.svg"
   xmlns:inkscape="http://www.inkscape.org/namespaces/inkscape"
   xmlns:sodipodi="http://sodipodi.sourceforge.net/DTD/sodipodi-0.dtd"
   xmlns="http://www.w3.org/2000/svg"
   xmlns:svg="http://www.w3.org/2000/svg"><sodipodi:namedview
     id="namedview7"
     pagecolor="#ffffff"
     bordercolor="#000000"
     borderopacity="0.25"
     inkscape:showpageshadow="2"
     inkscape:pageopacity="0.0"
     inkscape:pagecheckerboard="0"
     inkscape:deskcolor="#d1d1d1"
     inkscape:document-units="mm"
     showgrid="false"
     inkscape:zoom="1.0570195"
     inkscape:cx="163.19472"
     inkscape:cy="900.17261"
     inkscape:window-width="1920"
     inkscape:window-height="1044"
     inkscape:window-x="0"
     inkscape:window-y="36"
     inkscape:window-maximized="1"
     inkscape:current-layer="g941" /><defs
     id="defs2"><filter
       style="color-interpolation-filters:sRGB;"
       inkscape:label="Drop Shadow"
       id="filter25868"
       x="-0.022254065"
       y="-0.074339913"
       width="1.0500716"
       height="1.1672648"><feFlood
         flood-opacity="0.498039"
         flood-color="rgb(0,0,0)"
         result="flood"
         id="feFlood25858" /><feComposite
         in="flood"
         in2="SourceGraphic"
         operator="in"
         result="composite1"
         id="feComposite25860" /><feGaussianBlur
         in="composite1"
         stdDeviation="1"
         result="blur"
         id="feGaussianBlur25862" /><feOffset
         dx="0.6"
         dy="0.6"
         result="offset"
         id="feOffset25864" /><feComposite
         in="SourceGraphic"
         in2="offset"
         operator="over"
         result="composite2"
         id="feComposite25866" /></filter><filter
       style="color-interpolation-filters:sRGB;"
       inkscape:label="Drop Shadow"
       id="filter25880"
       x="-0.022254065"
       y="-0.074339913"
       width="1.0500716"
       height="1.1672648"><feFlood
         flood-opacity="0.498039"
         flood-color="rgb(0,0,0)"
         result="flood"
         id="feFlood25870" /><feComposite
         in="flood"
         in2="SourceGraphic"
         operator="in"
         result="composite1"
         id="feComposite25872" /><feGaussianBlur
         in="composite1"
         stdDeviation="1"
         result="blur"
         id="feGaussianBlur25874" /><feOffset
         dx="0.6"
         dy="0.6"
         result="offset"
         id="feOffset25876" /><feComposite
         in="SourceGraphic"
         in2="offset"
         operator="over"
         result="composite2"
         id="feComposite25878" /></filter></defs><g
     inkscape:label="Layer 1"
     inkscape:groupmode="layer"
     id="layer1"><g
       id="g18382"
       transform="matrix(1.8159575,0,0,1.8027235,-77.677894,-148.22564)"
       style="filter:url(#filter25868)"
       inkscape:export-filename="win_exe.png"
       inkscape:export-xdpi="96"
       inkscape:export-ydpi="96"><rect
         style="fill:#00c6ff;fill-opacity:1;stroke-width:0.250683"
         id="rect111"
         width="107.84547"
         height="32.284138"
         x="46.620861"
         y="127.40202"
         ry="6.9562488"
         rx="4.3554053" /><text
         xml:space="preserve"
         style="font-size:3.175px;white-space:pre;inline-size:20.2635;fill:#ffffff;fill-opacity:1;stroke-width:0.264583"
         x="65.240875"
         y="135.89786"
         id="text7170"
         transform="matrix(2.9443202,0,0,2.9443202,-113.641,-260.59929)"><tspan
           x="65.240875"
           y="135.89786"
           id="tspan13413">Download for</tspan></text><path
         d="m 53.015934,135.95557 6.925,-0.94306 0.0031,6.67972 -6.921701,0.0394 z m 6.9217,6.50625 0.0055,6.68554 -6.921701,-0.95161 -3.89e-4,-5.77876 z m 0.839452,-7.57274 9.181974,-1.34009 v 8.05824 l -9.181974,0.073 z m 9.184109,7.63561 -0.0021,8.02196 -9.181974,-1.29586 -0.01281,-6.74104 z"
         fill="#00adef"
         id="path13613"
         style="fill:#ffffff;fill-opacity:1;stroke-width:0.194048" /><text
         xml:space="preserve"
         style="font-size:11.2898px;fill:#ffffff;fill-opacity:1;stroke-width:0.940815"
         x="75.798683"
         y="151.41049"
         id="text14722"><tspan
           sodipodi:role="line"
           id="tspan14720"
           style="font-weight:bold;stroke-width:0.940815"
           x="75.798683"
           y="151.41049">Windows</tspan></text><text
         xml:space="preserve"
         style="font-size:6.46278px;fill:#ffffff;fill-opacity:1;stroke-width:0.538564"
         x="130.00589"
         y="150.49141"
         id="text14726"><tspan
           sodipodi:role="line"
           id="tspan14724"
           style="stroke-width:0.538564"
           x="130.00589"
           y="150.49141">(exe)</tspan></text></g><g
       id="g18400"
       transform="matrix(1.8159575,0,0,1.8027235,-78.741194,-68.22828)"
       style="filter:url(#filter25880)"
       inkscape:export-filename="win_msi.png"
       inkscape:export-xdpi="96"
       inkscape:export-ydpi="96"><rect
         style="fill:#9b00de;fill-opacity:1;stroke-width:0.250683"
         id="rect18384"
         width="107.84547"
         height="32.284138"
         x="46.620861"
         y="127.40202"
         ry="6.9562488"
         rx="4.3554053" /><text
         xml:space="preserve"
         style="font-size:3.175px;white-space:pre;inline-size:20.2635;fill:#ffffff;fill-opacity:1;stroke-width:0.264583"
         x="65.240875"
         y="135.89786"
         id="text18388"
         transform="matrix(2.9443202,0,0,2.9443202,-113.641,-260.59929)"><tspan
           x="65.240875"
           y="135.89786"
           id="tspan13415">Download for</tspan></text><path
         d="m 53.015934,136.04607 7.185399,-0.97853 0.0032,6.93089 -7.181975,0.0408 z m 7.181975,6.75089 0.0057,6.93694 -7.181976,-0.98739 -4.03e-4,-5.99606 z m 0.871018,-7.85749 9.527241,-1.39048 v 8.36125 l -9.527241,0.0757 z m 9.529456,7.92273 -0.0022,8.32361 -9.527241,-1.34459 -0.01329,-6.99452 z"
         fill="#00adef"
         id="path18390"
         style="fill:#ffffff;fill-opacity:1;stroke-width:0.201345" /><text
         xml:space="preserve"
         style="font-size:11.2898px;fill:#ffffff;fill-opacity:1;stroke-width:0.940815"
         x="75.798683"
         y="151.41049"
         id="text18394"><tspan
           sodipodi:role="line"
           id="tspan18392"
           style="font-weight:bold;stroke-width:0.940815"
           x="75.798683"
           y="151.41049">Windows</tspan></text><text
         xml:space="preserve"
         style="font-size:6.46278px;fill:#ffffff;fill-opacity:1;stroke-width:0.538564"
         x="130.00589"
         y="150.49141"
         id="text18398"><tspan
           sodipodi:role="line"
           id="tspan18396"
           style="stroke-width:0.538564"
           x="130.00589"
           y="150.49141">(msi)</tspan></text></g><g
       id="g941"
       transform="matrix(1.8159575,0,0,1.8027235,-77.97827,2.5615483)"
       style="filter:url(#filter25868)"
       inkscape:export-filename="win_exe.png"
       inkscape:export-xdpi="96"
       inkscape:export-ydpi="96"><rect
         style="fill:#1e2d39;fill-opacity:1;stroke-width:0.250683"
         id="rect925"
         width="107.84547"
         height="32.284138"
         x="46.620861"
         y="127.40202"
         ry="6.9562488"
         rx="4.3554053"
         inkscape:export-filename="win_choco.png"
         inkscape:export-xdpi="96"
         inkscape:export-ydpi="96" /><text
         xml:space="preserve"
         style="font-size:11.2898px;fill:#ffffff;fill-opacity:1;stroke-width:0.940815"
         x="78.941414"
         y="151.41048"
         id="text935"><tspan
           sodipodi:role="line"
           id="tspan933"
           style="font-weight:bold;stroke-width:0.940815"
           x="78.941414"
           y="151.41048">Chocolatey</tspan></text><text
         xml:space="preserve"
         style="font-size:6.46278px;fill:#ffffff;fill-opacity:1;stroke-width:0.538564"
         x="130.00589"
         y="150.49141"
         id="text939"><tspan
           sodipodi:role="line"
           id="tspan937"
           style="stroke-width:0.538564"
           x="130.00589"
           y="150.49141" /></text><g
         id="g1020"
         transform="matrix(0.69317438,0,0,0.69826303,52.292471,133.04145)">
	<polygon
   fill="#924716"
   points="27.6,27.2 5.7,27.2 5.7,1 27.6,1 27.6,6.9 "
   id="polygon990" />
	<polygon
   fill="#793812"
   points="27.6,27.2 25.7,27.2 25.7,2.6 27.6,1 "
   id="polygon992" />
	<polygon
   fill="#9f5326"
   points="3.5,2.6 3.5,1 27.3,1 25.4,2.6 "
   id="polygon994" />
	<g
   id="g1000">
		<polygon
   fill="#80b5e3"
   points="16.6,2.6 19.1,5.7 23.8,4.9 25.7,10.7 27.6,18.1 30.5,21.1 29,23.6 31.7,28.4 27.6,27.2 3.7,27.2 3.7,1 8.5,1 12.6,4.2 "
   id="polygon996" />
		<polygon
   fill="#80b5e3"
   points="1.9,10.8 0,14.1 1.9,17.3 0,20.6 1.9,23.9 0,28.4 3.7,27.2 3.7,1 0,0 1.9,4.2 0,7.5 "
   id="polygon998" />
	</g>
	<polygon
   opacity="0.2"
   fill="#ffffff"
   points="5.4,2.6 3.5,1 8.3,1 10.4,2.6 "
   id="polygon1002" />
	<g
   id="g1010">
		<path
   fill="#924716"
   d="m 18.3,13.7 c -0.7,0.6 -2.5,1.9 -4.4,2.3 -2.3,0.5 -3.6,-1.4 -3.1,-3.2 0.5,-2.1 2.8,-3.7 4.8,-3 0.9,0.3 0.6,1.5 0.3,2.1 -0.8,1.5 0.3,1.7 0.8,1.2 1.5,-1.6 2.4,-4.3 -0.2,-5.3 -4,-1.5 -7.3,2.2 -8.4,5.2 -1.7,4.8 2.4,9 7.1,5.8 1.2,-0.8 2.6,-2.2 3.5,-3.4 0.8,-1.2 0.3,-2.3 -0.4,-1.7 z"
   id="path1004" />
		<ellipse
   transform="matrix(0.707,-0.7072,0.7072,0.707,-1.547,19.2306)"
   fill="#924716"
   cx="22.4"
   cy="11.5"
   rx="1.6"
   ry="1.1"
   id="ellipse1006" />
		<ellipse
   transform="matrix(0.707,-0.7072,0.7072,0.707,-4.7882,20.1076)"
   fill="#924716"
   cx="21.9"
   cy="15.8"
   rx="1.6"
   ry="1.1"
   id="ellipse1008" />
	</g>
	<polygon
   opacity="0.2"
   fill="#ffffff"
   points="3.7,27.2 3.7,1 5.7,2.6 5.7,25.5 "
   id="polygon1012" />
	<g
   opacity="0.2"
   id="g1018">
		<polygon
   fill="#342565"
   points="3.7,27.2 5.7,25.5 25.7,25.5 27.6,27.2 "
   id="polygon1014" />
		<polygon
   fill="#342565"
   points="25.7,25.5 25.7,10.7 27.6,18.1 27.6,27.2 "
   id="polygon1016" />
	</g>
</g><text
         xml:space="preserve"
         style="font-size:8.14621px;fill:#1e2d39;fill-opacity:1;stroke-width:0.678853"
         x="80.716385"
         y="140.76297"
         id="text11849"
         transform="scale(0.99634957,1.0036638)"><tspan
           sodipodi:role="line"
           id="tspan11847"
           style="fill:#ffffff;stroke-width:0.678853"
           x="80.716385"
           y="140.76297">Download from</tspan></text></g></g></svg>
